<svg xmlns="http://www.w3.org/2000/svg" viewBox="0 0 260 460" width="130" height="230">
  <defs>
    <linearGradient id="slotGrad" x1="0" y1="0" x2="0" y2="1">
      <stop offset="0" stop-color="#050505"/>
      <stop offset="0.55" stop-color="#161616"/>
      <stop offset="1" stop-color="#050505"/>
    </linearGradient>
  </defs>

  <!-- Rotate + tightly bound -->
  <g transform="translate(260 -70) rotate(90)">
    <!-- Tick marks -->
    <g fill="#b8b8b8">
      <rect x="120" y="54" width="4" height="67" rx="2"/>
      <rect x="120" y="140" width="4" height="67" rx="2"/>

      <rect x="150" y="62" width="4" height="58" rx="2"/>
      <rect x="150" y="138" width="4" height="58" rx="2"/>

      <rect x="180" y="54" width="4" height="67" rx="2"/>
      <rect x="180" y="140" width="4" height="67" rx="2"/>

      <rect x="210" y="62" width="4" height="58" rx="2"/>
      <rect x="210" y="138" width="4" height="58" rx="2"/>

      <rect x="240" y="54" width="4" height="67" rx="2"/>
      <rect x="240" y="140" width="4" height="67" rx="2"/>

      <rect x="270" y="62" width="4" height="58" rx="2"/>
      <rect x="270" y="138" width="4" height="58" rx="2"/>

      <rect x="300" y="48" width="4" height="70" rx="2" fill="#cfcfcf"/>
      <rect x="300" y="142" width="4" height="70" rx="2" fill="#cfcfcf"/>

      <rect x="330" y="62" width="4" height="58" rx="2"/>
      <rect x="330" y="138" width="4" height="58" rx="2"/>

      <rect x="360" y="54" width="4" height="67" rx="2"/>
      <rect x="360" y="140" width="4" height="67" rx="2"/>

      <rect x="390" y="62" width="4" height="58" rx="2"/>
      <rect x="390" y="138" width="4" height="58" rx="2"/>

      <rect x="420" y="54" width="4" height="67" rx="2"/>
      <rect x="420" y="140" width="4" height="67" rx="2"/>

      <rect x="450" y="62" width="4" height="58" rx="2"/>
      <rect x="450" y="138" width="4" height="58" rx="2"/>

      <rect x="480" y="54" width="4" height="67" rx="2"/>
      <rect x="480" y="140" width="4" height="67" rx="2"/>
    </g>

    <!-- Slot -->
    <rect x="80" y="124" width="440" height="12" rx="4" fill="#383838"/>
  </g>
</svg>
